<svg width="24" height="24" viewBox="0 0 24 24" fill="none" xmlns="http://www.w3.org/2000/svg">
<path d="M16.9954 4H6.99537C3.16537 4 2.09537 4.92 2.00537 8.5C3.93537 8.5 5.49537 10.07 5.49537 12C5.49537 13.93 3.93537 15.49 2.00537 15.5C2.09537 19.08 3.16537 20 6.99537 20H16.9954C20.9954 20 21.9954 19 21.9954 15V9C21.9954 5 20.9954 4 16.9954 4Z" stroke="#292D32" stroke-width="1.5" stroke-linecap="round" stroke-linejoin="round"/>
<path d="M8.99365 4V7.5" stroke="#292D32" stroke-width="1.5" stroke-linecap="round" stroke-linejoin="round"/>
<path d="M8.99365 16.5V20" stroke="#292D32" stroke-width="1.5" stroke-linecap="round" stroke-linejoin="round"/>
<path d="M15.0255 9.33003L15.6455 10.58C15.7055 10.7 15.8255 10.79 15.9555 10.81L17.3355 11.01C17.6755 11.06 17.8155 11.48 17.5655 11.72L16.5655 12.69C16.4655 12.78 16.4255 12.92 16.4455 13.06L16.6855 14.43C16.7455 14.77 16.3855 15.03 16.0855 14.87L14.8555 14.22C14.7355 14.16 14.5855 14.16 14.4655 14.22L13.2355 14.87C12.9255 15.03 12.5755 14.77 12.6355 14.43L12.8755 13.06C12.8955 12.92 12.8555 12.79 12.7555 12.69L11.7655 11.72C11.5155 11.48 11.6555 11.06 11.9955 11.01L13.3755 10.81C13.5155 10.79 13.6255 10.71 13.6855 10.58L14.2955 9.33003C14.4355 9.02003 14.8755 9.02003 15.0255 9.33003Z" stroke="#292D32" stroke-width="1.5" stroke-linecap="round" stroke-linejoin="round"/>
</svg>
