<svg width="24" height="24" viewBox="0 0 24 24" fill="none" xmlns="http://www.w3.org/2000/svg">
<path d="M18.9105 14.6925C18.9105 15.9825 19.9705 17.0325 21.2605 17.0325C21.2605 20.7825 20.3205 21.7225 16.5705 21.7225H7.19049C3.44049 21.7225 2.50049 20.7825 2.50049 17.0325V16.5725C3.79049 16.5725 4.85049 15.5125 4.85049 14.2225C4.85049 12.9325 3.79049 11.8725 2.50049 11.8725V11.4125C2.51049 7.66253 3.44049 6.72253 7.19049 6.72253H16.5605C20.3105 6.72253 21.2505 7.66253 21.2505 11.4125V12.3525C19.9605 12.3525 18.9105 13.3925 18.9105 14.6925Z" stroke="#292D32" stroke-width="1.5" stroke-linecap="round" stroke-linejoin="round"/>
<path d="M16.2116 6.7225H7.12158L10.0516 3.7925C12.4416 1.4025 13.6416 1.4025 16.0316 3.7925L16.6316 4.3925C16.0016 5.0225 15.8516 5.9525 16.2116 6.7225Z" stroke="#292D32" stroke-width="1.5" stroke-linecap="round" stroke-linejoin="round"/>
<path d="M9.87939 6.72266L9.8794 21.7227" stroke="#292D32" stroke-width="1.5" stroke-linecap="round" stroke-linejoin="round" stroke-dasharray="5 5"/>
</svg>
